<?xml version="1.0" encoding="UTF-8"?>
<svg xmlns="http://www.w3.org/2000/svg" viewBox="0 0 1077.17 1077.17">
  <defs>
    <style>
      .cls-1 {
        fill: #249fda;
        stroke-width: 17px;
      }

      .cls-1, .cls-2, .cls-3 {
        stroke: #fff;
        stroke-miterlimit: 10;
      }

      .cls-4 {
        fill: #fff;
      }

      .cls-2 {
        stroke-width: 4px;
      }

      .cls-2, .cls-3 {
        fill: none;
      }

      .cls-3 {
        stroke-width: 3px;
      }
    </style>
  </defs>
  <g id="Layer_10_copy">
    <rect class="cls-1" x="106.55" y="104.86" width="862.09" height="862.09" rx="206.62" ry="206.62"/>
  </g>
  <g id="Layer_6">
    <g>
      <circle class="cls-3" cx="747.96" cy="388.69" r="35.29"/>
      <path class="cls-2" d="M724.57,389.35c-1.21-.61-1.07-2.38.22-2.79l38.35-12.22c1.1-.35,2.16.61,1.94,1.73l-6.43,32.24c-.21,1.05-1.41,1.55-2.31.97l-31.78-19.94Z"/>
      <path class="cls-4" d="M659.31,437.09c-4.43,3.82-9.04,8.42-13.24,14.49-25.37,36.65-22.44,46.05-36.59,60.74v-43.2c0-9.35-.76-16.81-2.26-22.4-1.51-5.58-3.55-9.88-6.11-12.89-2.57-3.01-5.58-4.98-9.05-5.88-3.47-.9-7.32-1.36-11.54-1.36-5.13,0-9.81.46-14.03,1.36-4.22.9-7.84,2.87-10.86,5.88s-5.35,7.32-7.01,12.89c-.73,2.46-1.3,5.28-1.71,8.47v84.14c-4.1.37-7.26.47-9.05.53-20.17.62-34.69-4.66-47.5-12.03v-48.76c0-6.9-.52-12.97-1.57-18.21-.73-3.69-1.72-6.97-2.96-9.84-3.02-6.94-6.72-12.22-11.09-15.83-4.37-3.62-9.13-5.95-14.25-7.01-5.13-1.05-9.81-1.58-14.03-1.58-5.13,0-10.03,1.29-14.7,3.84-4.68,2.57-8.68,5.81-11.99,9.73-3.32,3.92-5.95,8.22-7.92,12.9-1.97,4.67-2.94,9.13-2.94,13.34v157.94c-5.06,0-9.91-.1-14.56-.28-2.68-.11-5.29-.25-7.84-.4-7.09-.45-13.12-2.1-18.09-4.97-4.97-2.86-8.9-7.39-11.76-13.57-.22-.47-.43-.96-.62-1.46h0c-2.45-6.07-3.67-14.25-3.67-24.56v-83.33c.06-16.06,2.7-29.09,7.92-39.09,5.27-10.1,12.22-18.01,20.81-23.75,4.84-3.22,10.11-5.9,15.8-8.02,4.43-1.66,9.12-2.98,14.06-3.97,11.31-2.26,23.14-3.69,35.51-4.3,13.58,4.83,24.58,7.24,33.03,7.24,6.33,0,12.51-1.06,18.54-3.17,6.03-2.1,13.12-4.97,21.27-8.6,8.33,0,14.78,1.86,19.34,5.58,10.99-1.61,24.95-2.41,41.87-2.41s31.36.98,42.52,2.94c11.16,1.96,19.91,4.97,26.24,9.05,4.21,2.7,7.55,5.98,10.02,9.82Z"/>
      <path class="cls-4" d="M740.01,640.36c-3.78-6.48-8.83-11.31-15.16-14.47-6.33-3.17-13.5-5.05-21.49-5.65-8-.6-16.22-.91-24.66-.91v7.24c4.82,0,8.97.53,12.44,1.58,3.46,1.06,6.33,3.01,8.6,5.88,2.26,2.87,3.84,7.01,4.75,12.45.9,5.43,1.35,12.52,1.35,21.26,0,14.48-1.73,24.74-5.2,30.77-3.47,6.03-8.68,9.05-15.61,9.05-8.15,0-13.35-3.54-15.61-10.64-2.26-7.08-3.39-19.22-3.39-36.42v-59.26h-57c-6.64,0-13.65-.23-21.04-.68-7.39-.45-14.18-1.58-20.36-3.39-6.18-1.81-11.31-4.59-15.38-8.37-2.63-2.43-4.4-5.52-5.33-9.26v-2.51c-2.44-.06-4.72-.12-6.83-.18-18.33-.55-34.76-3.09-49.72-6.38v116.73c-1.81,4.22-4.6,7.69-8.37,10.41-3.77,2.71-7.77,4.9-11.99,6.56-4.22,1.66-8.53,2.79-12.89,3.39-4.37.61-8.07.91-11.09.91-3.32,0-7.09-.83-11.31-2.49-4.23-1.65-8.22-4.29-11.99-7.92-2.58-2.48-4.9-5.36-6.98-8.68-.96-1.53-1.88-3.16-2.74-4.89-2.71-5.43-4.07-12.06-4.07-19.91v-39.51c-2.99,4.71-7.2,9.26-12.62,13.68h0c-2.29,1.87-4.78,3.7-7.5,5.51-9.5,6.33-21.64,9.81-36.42,10.41v12.63c0,12.07,2.86,21.49,8.6,28.27,4.43,5.25,9.86,9.51,16.28,12.77h0c1.87.96,3.84,1.83,5.88,2.61,9.05,3.46,19.07,5.58,30.09,6.33,11,.75,21.79,1.13,32.34,1.13s20.89-2.03,30.99-6.11c9.33-3.76,16.54-7.46,21.63-11.09.88,1.12,1.86,2.17,2.93,3.16,5.88,5.43,13.94,8.15,24.2,8.15,9.65,0,17.34-2.64,23.08-7.92,5.73-5.27,8.6-12.44,8.6-21.49v-57.45c0-4.22.52-8.07,1.58-11.54,1.05-3.46,2.78-5.95,5.2-7.47,3.91,1.81,9.65,2.87,17.19,3.17,7.54.3,17.03.45,28.5.45v62.44c0,14.78,2.64,25.11,7.92,30.99,5.27,5.88,15.61,8.82,30.99,8.82h36.65c22.01,0,37.62-3.16,46.82-9.5,9.2-6.33,13.8-18.1,13.8-35.29,0-11.76-1.89-20.88-5.65-27.37ZM546.92,602.57v3.53c.88-1.16,1.67-2.34,2.39-3.52-.8,0-1.6,0-2.39,0Z"/>
      <path class="cls-4" d="M402.1,628.26c.3,1.07-5.04,5.8-13.6,10.61-9.68,5.43-23.49,10.97-37.96,11.46-1.04.04-2.09.05-3.14.02-6.6-.11-13.28-1.34-19.72-4.16-16.63-7.27-27.47-23.27-32.49-41.45-2.65-9.6-3.67-19.82-3.05-29.66.57-9.15,2.55-17.98,5.95-25.73,8.95-20.39,27.87-33.35,49.32-40.76v66.32c-.65,2.1-1.12,4.29-1.41,6.53-.77,5.81-.33,11.98,1.41,17.86.17.59.36,1.18.56,1.76.7,2.03,1.56,4.03,2.58,5.94,1.03,1.94,2.22,3.8,3.59,5.56,6.79,8.77,15.52,12.2,18.83,13.45,4.81,1.83,9.35,2.6,13.33,2.84,9.18.57,15.51-1.69,15.81-.6Z"/>
      <path class="cls-4" d="M741.39,399.9c-3.11,2.69-6.51,5.5-10,8.23-4.44,3.49-8.37,6.34-11.9,8.74-11.87,8.09-19.11,11.06-25.53,15.83-.21.16-.41.31-.62.47-3.71,2.85-6.66,5.98-9.01,9.32-4.17,14.05-6.81,31.04-10.95,46.72-1.31,14.48-3.61,29.32-13.29,42.72-.52.73-1.07,1.44-1.63,2.14l-.02.02c-4.46,7.62-10.52,13.55-18.2,17.83-8.15,4.52-17.87,7.62-29.18,9.28-.09.02-.18.03-.28.04-.02,0-.03,0-.05,0-22.34,5.55-46.41,6.1-63.82,5.82-3.24-.06-6.26-.13-8.98-.22-17.46-.53-33.2-2.85-47.58-5.92,0,0-3.85-1.72-5.92-3.09-11.45-5.58-38.37-16.76-70.39-17.04v-39.44c32.43,3.88,49.94,21,70.39,34.08,0,0,2.18,1.69,5.92,3.61.16.09.31.18.47.27,12.7,7.23,27.11,12.38,47.04,11.76,2.33-.08,6.97-.22,13-.96,15.44-1.88,40-7.65,58.08-26.03.09-.09.18-.19.28-.28,14.45-14.86,11.32-24.14,36.84-61.01,6.13-8.87,10.95-15.86,15.48-21.57,5.84-7.4,11.19-12.68,18.2-17.13,6.76-4.29,12.16-6.32,18.35-8.54,4.52-1.63,9.47-3.35,15.69-6.14,3.84-1.73,8.18-3.87,13.2-6.64,3.56-1.97,6.84-3.91,9.81-5.75,12.26-7.59,19.34-13.49,19.94-12.72.62.78-6.11,7.66-15.34,15.62Z"/>
    </g>
  </g>
</svg>